<svg width="123" height="141" viewBox="0 0 123 141" fill="none" xmlns="http://www.w3.org/2000/svg">
<path fill-rule="evenodd" clip-rule="evenodd" d="M48.3801 135.964C53.6807 138.813 59.623 140.256 65.6399 140.154C71.6513 140.208 77.5765 138.72 82.8501 135.834L111.152 119.465C112.129 119.053 113.09 118.596 114.03 118.094L113.903 117.874C115.978 116.655 117.892 115.181 119.6 113.484C120.613 112.494 121.417 111.31 121.967 110.004C122.516 108.699 122.799 107.296 122.799 105.879C122.799 104.463 122.516 103.06 121.967 101.754C121.417 100.448 120.613 99.2652 119.6 98.2744C117.891 96.5918 115.979 95.1273 113.91 93.9143C104.25 88.2843 88.97 88.2943 79.25 93.9143L65.437 101.895L38.0901 86.1064V54.0844L65.5015 38.2592L79.3401 46.2543C89.0701 51.8543 104.3 51.8643 114.01 46.2543C116.079 45.0414 117.99 43.577 119.7 41.8944C120.712 40.9044 121.517 39.7221 122.066 38.417C122.615 37.1119 122.898 35.7103 122.898 34.2943C122.898 32.8784 122.615 31.4768 122.066 30.1717C121.517 28.8666 120.712 27.6843 119.7 26.6943C117.981 24.9778 116.048 23.489 113.95 22.2644L110.46 28.3244C112.046 29.2596 113.508 30.3919 114.81 31.6943C115.154 32.0323 115.428 32.4353 115.615 32.8799C115.802 33.3246 115.899 33.8019 115.9 34.2843C115.89 35.2591 115.494 36.1902 114.8 36.8743C113.509 38.1577 112.06 39.2731 110.49 40.1943C103 44.5443 90.3301 44.5343 82.8201 40.1943L72.4886 34.2254L82.97 28.1744C90.43 23.8644 103.03 23.8644 110.49 28.1744L113.99 22.1144L82.99 4.19434C73.57 -1.24566 58.96 -1.39566 49.26 3.75434L48.3999 4.19434C43.2272 7.17304 38.6559 12.306 35.5179 18.1437C28.752 17.9666 22.225 19.4434 17.3 22.2843C7.90005 27.7143 0.470059 40.2243 0.0600586 51.2243L0 52.2243C0 58.1307 2.11556 64.5813 5.53868 70.1769C2.03152 75.9743 0.0500488 82.3467 0.0500488 88.0244C0.0500488 98.1044 6.15991 109.714 14.4099 116.024L14.26 116.294L17.26 118.034C22.22 120.904 28.8099 122.364 35.6399 122.184C38.5711 127.839 42.9723 132.599 48.3801 135.964ZM10.1683 76.3331C8.16479 80.3155 7.03003 84.5055 7.03003 88.1444C7.03003 96.7544 13.33 107.674 20.79 111.974L22.26 112.754C25.5311 114.19 29.041 115.004 32.6101 115.154C31.6548 112.217 31.1491 109.153 31.1101 106.064V90.1198L17.26 82.1243C14.7182 80.6565 12.3212 78.6688 10.1683 76.3331ZM31.1101 82.0767L20.8 76.1243C18.393 74.7222 16.1074 72.6367 14.1152 70.1654C15.991 67.8464 18.2461 65.8536 20.79 64.2744L31.1101 58.2744V82.0767ZM38.0901 94.1492V105.914C38.1615 108.901 38.7678 111.851 39.8801 114.624C42.8148 114.198 45.6494 113.25 48.25 111.824L58.4749 105.917L38.0901 94.1492ZM65.6349 110.05L51.8501 118.014C49.1705 119.532 46.2732 120.628 43.26 121.264C45.4492 124.764 48.4074 127.719 51.9099 129.904C59.3699 134.204 71.9799 134.204 79.4299 129.904L93.0532 122.037C88.3035 121.695 83.6815 120.337 79.5 118.054L65.6349 110.05ZM72.5967 106.028L83 112.034C86.3634 113.835 90.0732 114.895 93.8801 115.144C99.3635 115.606 104.886 114.734 109.038 112.807L110.48 111.974C112.064 111.039 113.525 109.911 114.83 108.614C115.177 108.277 115.453 107.874 115.641 107.428C115.829 106.982 115.926 106.503 115.926 106.019C115.926 105.536 115.829 105.057 115.641 104.611C115.453 104.165 115.177 103.762 114.83 103.424C113.539 102.144 112.095 101.029 110.53 100.104C103.03 95.7743 90.3601 95.7843 82.8501 100.104L72.5967 106.028ZM10.1382 63.9552C8.36151 60.4005 7.22856 56.6053 7.06006 53.1243V52.1844C7.06006 43.5644 13.3601 32.6543 20.8201 28.3443C23.9435 26.5407 28.1204 25.4359 32.5588 25.1797C31.638 28.1697 31.1301 31.193 31.1301 34.0844V50.0844L17.3101 58.0844C14.6507 59.7023 12.2382 61.6801 10.1382 63.9552ZM39.9264 25.5159C38.8042 28.4622 38.1599 31.4667 38.1599 34.2343V46.1543L58.6708 34.3128L48.3401 28.3443C45.7087 26.934 42.8638 25.9798 39.9264 25.5159ZM43.2342 19.0379C46.2244 19.7157 49.1147 20.806 51.8201 22.2843L65.6578 30.279L79.54 22.2643C83.7235 19.9804 88.3468 18.6167 93.1001 18.2643L79.52 10.4344C72.07 6.12436 59.46 6.12436 52 10.4344L51.1599 10.8344C48.1833 12.7369 45.4319 15.6655 43.2342 19.0379Z" fill="#EB1F50"/>
</svg>
