<svg width="13" height="17" viewBox="0 0 13 17" fill="none" xmlns="http://www.w3.org/2000/svg">
<path d="M5.7001 12.0361H7.3001V7.23613H5.7001V12.0361ZM6.5001 5.63613C6.72676 5.63613 6.9169 5.55933 7.0705 5.40573C7.2241 5.25213 7.30063 5.06227 7.3001 4.83613C7.29956 4.61 7.22276 4.42013 7.0697 4.26653C6.91663 4.11293 6.72676 4.03613 6.5001 4.03613C6.27343 4.03613 6.08356 4.11293 5.9305 4.26653C5.77743 4.42013 5.70063 4.61 5.7001 4.83613C5.69956 5.06227 5.77636 5.2524 5.9305 5.40653C6.08463 5.56067 6.2745 5.6372 6.5001 5.63613ZM6.5001 16.0361C4.64676 15.5695 3.11663 14.506 1.9097 12.8457C0.702765 11.1855 0.0995647 9.34227 0.100098 7.31613V2.43613L6.5001 0.0361328L12.9001 2.43613V7.31613C12.9001 9.3428 12.2969 11.1863 11.0905 12.8465C9.8841 14.5068 8.35396 15.57 6.5001 16.0361ZM6.5001 14.3561C7.88676 13.9161 9.03343 13.0361 9.9401 11.7161C10.8468 10.3961 11.3001 8.92947 11.3001 7.31613V3.53613L6.5001 1.73613L1.7001 3.53613V7.31613C1.7001 8.92947 2.15343 10.3961 3.0601 11.7161C3.96676 13.0361 5.11343 13.9161 6.5001 14.3561Z" fill="black"/>
</svg>
