<svg width="109" height="50" viewBox="0 0 109 50" fill="none" xmlns="http://www.w3.org/2000/svg">
<path d="M107.472 0.215342L0.951159 7.38681C0.692201 7.40492 0.449772 7.52105 0.272943 7.71171C0.0961135 7.90237 -0.00190704 8.15331 -0.00127874 8.41373V8.51914L3.28311 39.7417V39.7587C3.28311 39.9185 3.30005 40.0784 3.30005 40.2552C3.30005 40.8026 3.22888 41.3535 3.08652 41.833L1.55109 46.7908C1.37484 47.3382 1.67311 47.6239 2.20526 47.3926L10.3772 43.9922H10.4111C10.9941 43.761 11.628 43.6386 12.2991 43.6386H12.4584L103.021 49.5009C103.604 49.5009 104.062 49.0588 104.116 48.491L108.458 1.20486V1.11645C108.459 0.997417 108.436 0.879391 108.391 0.769243C108.346 0.659094 108.28 0.55902 108.196 0.474847C108.112 0.390675 108.012 0.324083 107.903 0.278948C107.793 0.233812 107.675 0.211035 107.556 0.21194L107.472 0.215342ZM20.4948 16.8978H20.7422C24.4503 16.8978 26.3924 18.2783 26.4975 20.9374V21.1517H24.1656L24.1317 20.9748C24.0097 19.7881 22.8945 19.2202 20.7422 19.2202H20.5287C18.356 19.2542 17.2816 19.9105 17.2816 21.1857V21.5393C17.3155 21.7875 17.4239 21.9984 17.6002 22.1582C17.8509 22.3819 18.1452 22.551 18.4645 22.6546L23.9012 24.4977L23.8673 24.4637L23.9215 24.4807C24.735 24.7459 25.457 25.2254 26.006 25.8782C26.5119 26.5261 26.7907 27.3233 26.7992 28.1463V28.6768C26.7992 29.9859 26.162 31.1217 25.1587 31.829C24.0978 32.6451 22.5624 33.0497 20.6575 33.0497C18.7526 33.0497 17.268 32.6247 16.1902 31.829V31.812C15.6835 31.4555 15.271 30.9807 14.9881 30.4286C14.7053 29.8764 14.5606 29.2635 14.5666 28.6428V28.3231H16.8986V28.5544C16.8986 29.2276 17.1799 29.7071 17.8341 30.1322C18.5052 30.5402 19.4576 30.751 20.6778 30.751C21.898 30.751 22.9013 30.5368 23.5555 30.1322C24.2266 29.7241 24.5621 29.2276 24.5621 28.5544V28.2347C24.5621 27.473 24.1215 26.9766 23.203 26.6773L17.7832 24.8547C16.902 24.5725 16.2105 24.1474 15.7529 23.5796C15.2867 23.0167 15.0303 22.3086 15.0276 21.5767V21.1857C15.0276 18.3871 16.8443 16.9522 20.5016 16.9182L20.4948 16.8978ZM57.972 17.2548H60.304V23.8244H67.4896V17.2718H69.8385V32.9987H67.4727V26.1095H60.3243V32.9987H57.9754L57.972 17.2548ZM28.6159 17.2888H30.8767V21.5733H33.2968V23.8924H30.8767V27.9321C30.8767 28.8706 31.1241 29.5983 31.6359 30.1288L31.619 30.1458C32.027 30.5644 32.5602 30.8378 33.1375 30.9244H33.2968V33.1211L33.0832 33.1041H33.0663C31.9048 33.0388 30.8095 32.5403 29.9954 31.7065C29.0769 30.751 28.6193 29.4759 28.6193 27.9355L28.6159 17.2888ZM82.4575 17.2888H84.7183V22.3724C85.4063 21.6651 86.3791 21.2911 87.579 21.2911C90.9854 21.2911 92.7343 23.0797 92.7343 26.6025V27.8947C92.7343 29.4351 92.2767 30.7272 91.3582 31.6861C90.4397 32.6451 89.1686 33.1041 87.579 33.1041C85.9893 33.1041 84.7352 32.6451 83.837 31.6861C82.9185 30.7306 82.4439 29.4385 82.4439 27.8947V17.3024L82.4575 17.2888ZM45.9157 17.3058H48.1765V22.3724C48.8815 21.6651 49.8373 21.2741 51.0541 21.2741C54.4775 21.2741 56.1926 23.0797 56.2095 26.6059V27.8981C56.2095 29.4385 55.7519 30.7306 54.8334 31.6895C53.9148 32.6485 52.6438 33.1075 51.0745 33.1075C49.4848 33.1075 48.2307 32.6485 47.3156 31.6895C46.4004 30.7306 45.9225 29.4419 45.9225 27.8981L45.9157 17.3058ZM35.0932 21.5937H37.3167V27.7927C37.3167 28.9624 37.4929 29.7955 37.8285 30.2546C38.1471 30.6796 38.747 30.9279 39.5774 30.9279H39.6486C40.496 30.9279 41.062 30.6966 41.3976 30.2546C41.7331 29.8125 41.9094 28.9624 41.9094 27.7927H41.8924V21.5937H44.1159V27.7927C44.1159 29.6697 43.7465 31.0503 43.0754 31.8834C42.4042 32.6621 41.3264 33.0701 39.8622 33.1041H39.3334C37.8691 33.0701 36.7913 32.6621 36.1371 31.863C35.4321 31.0469 35.0966 29.6663 35.0966 27.7723L35.0932 21.5937ZM71.601 21.5937H73.8245V27.7927C73.8245 28.9624 74.0008 29.7955 74.3363 30.2546C74.6549 30.6796 75.2379 30.9279 76.0853 30.9279H76.1904C77.0038 30.9279 77.5665 30.6966 77.902 30.2546C78.2376 29.7955 78.4139 28.9624 78.4139 27.7927H78.3969V21.5937H80.6204V27.7927C80.6204 29.6697 80.2306 31.0877 79.5798 31.8834C78.9087 32.6621 77.8309 33.0701 76.3666 33.1041H75.8209C74.3567 33.0701 73.2788 32.6621 72.6077 31.863C71.9197 31.0469 71.5841 29.6663 71.5841 27.7723V21.5903L71.601 21.5937ZM51.0541 23.5048C50.1187 23.5048 49.3764 23.736 48.9018 24.212C48.4443 24.6915 48.1765 25.5042 48.1765 26.6025V27.9117C48.1765 28.8502 48.4578 29.5779 48.9527 30.1083C49.4475 30.6558 50.1356 30.9415 51.0541 30.9415C51.9727 30.9415 52.6608 30.6932 53.1726 30.1254C53.6844 29.5575 53.9487 28.8502 53.9487 27.9117V26.6365C53.9487 25.5042 53.6844 24.7051 53.2065 24.229C52.7116 23.7496 52.0066 23.5014 51.0541 23.5014V23.5048ZM87.579 23.5048C86.6435 23.5048 85.9012 23.736 85.4436 24.212C84.9657 24.6915 84.7183 25.5042 84.7183 26.6025V27.9117C84.7183 28.8502 84.9826 29.5779 85.4605 30.1083C85.9385 30.6558 86.6774 30.9415 87.579 30.9415C88.4806 30.9415 89.1856 30.6762 89.6974 30.1254C90.2261 29.5779 90.4736 28.8332 90.4736 27.9117V26.6365C90.4736 25.5042 90.2092 24.7051 89.7313 24.229C89.2364 23.7496 88.5314 23.5014 87.579 23.5014V23.5048Z" fill="black"/>
</svg>
